# xmcd
#
# Track frame offsets: 
#        150
#        14182
#        28722
#        38425
#        51441
#        70842
#        120500
#        146893
#        171335
#        184427
#        200618
#        223967
#        238767
#        252901
#        266152
#        278565
#        315129
#
# Disc length: 4589 seconds
#
# Revision: 2
# Processed by: cddbd v1.5.2PL0 Copyright (c) Steve Scherf et al.
# Submitted via: ExactAudioCopyFreeDBPlugin 1.0
#
DISCID=0a11eb11
DTITLE=Various Artist - JazzPiano History CD16 - Hard Bop
DYEAR=1900
DGENRE=Jazz
TTITLE0=Erroll Garner Trio - Trio
TTITLE1=Erroll Garner Trio - The Way You Look Tonight
TTITLE2=Erroll Garner - Indiana
TTITLE3=Erroll Garner Trio - Misty
TTITLE4=Erroll Garner Trio - Thay Can't Take That Away From Me
TTITLE5=Oscar Peterson Quartet - Stompin' At The Savoy
TTITLE6=Oscar Peterson Trio - Tenderly
TTITLE7=Oscar Peterson Trio - In Can't Give You Anything But Love
TTITLE8=Mary Lou Williams Quartet - Perdido
TTITLE9=Hank Jones Trio - Odd Number
TTITLE10=Hank Jones and Cannonball Aderley Quartet - A Little Taste
TTITLE11=George Shearing Quintet - Semptember In The Rain
TTITLE12=George Shearing Quintet - East Of The Sun
TTITLE13=George Shearing Quintet - Conception
TTITLE14=George Shearing Quintet - Lullaby Of Birdland
TTITLE15=Billy Taylor and Coleman Hawkins - Cheek To Cheek
TTITLE16=Kenny Drew and Buddy De Franco Quartet - When Your Lover Has Go
TTITLE16=ne
EXTD=
EXTT0=
EXTT1=
EXTT2=
EXTT3=
EXTT4=
EXTT5=
EXTT6=
EXTT7=
EXTT8=
EXTT9=
EXTT10=
EXTT11=
EXTT12=
EXTT13=
EXTT14=
EXTT15=
EXTT16=
PLAYORDER=
